<mxfile host="Electron" agent="Mozilla/5.0 (Windows NT 10.0; Win64; x64) AppleWebKit/537.36 (KHTML, like Gecko) draw.io/26.0.16 Chrome/132.0.6834.196 Electron/34.2.0 Safari/537.36" version="26.0.16">
  <diagram id="7VhDoFSsIkzzbW-he_Nm" name="Page-1">
    <mxGraphModel dx="3447" dy="3960" grid="1" gridSize="10" guides="1" tooltips="1" connect="1" arrows="1" fold="1" page="1" pageScale="1" pageWidth="850" pageHeight="1100" math="0" shadow="0">
      <root>
        <mxCell id="0" />
        <mxCell id="1" parent="0" />
        <mxCell id="2" value="&lt;font style=&quot;font-size: 24px;&quot;&gt;&lt;b&gt;Quản lý hiệu sách&lt;/b&gt;&lt;/font&gt;" style="whiteSpace=wrap;html=1;aspect=fixed;" parent="1" vertex="1">
          <mxGeometry x="220" y="-560" width="110" height="110" as="geometry" />
        </mxCell>
        <mxCell id="49" value="List" style="swimlane;fontStyle=0;childLayout=stackLayout;horizontal=1;startSize=30;horizontalStack=0;resizeParent=1;resizeParentMax=0;resizeLast=0;collapsible=1;marginBottom=0;whiteSpace=wrap;html=1;" parent="1" vertex="1">
          <mxGeometry x="420" y="-630" width="230" height="210" as="geometry" />
        </mxCell>
        <mxCell id="55" value="1. Quản Lý Sách" style="text;html=1;align=left;verticalAlign=middle;whiteSpace=wrap;rounded=0;" parent="49" vertex="1">
          <mxGeometry y="30" width="230" height="30" as="geometry" />
        </mxCell>
        <mxCell id="58" value="2. Quản Lý Khách Hàng" style="text;html=1;align=left;verticalAlign=middle;whiteSpace=wrap;rounded=0;" parent="49" vertex="1">
          <mxGeometry y="60" width="230" height="30" as="geometry" />
        </mxCell>
        <mxCell id="59" value="3. Quản Lý Đơn Hàng" style="text;html=1;align=left;verticalAlign=middle;whiteSpace=wrap;rounded=0;" parent="49" vertex="1">
          <mxGeometry y="90" width="230" height="30" as="geometry" />
        </mxCell>
        <mxCell id="75" value="4. Quản Lý Nhân Viên" style="text;html=1;align=left;verticalAlign=middle;whiteSpace=wrap;rounded=0;" parent="49" vertex="1">
          <mxGeometry y="120" width="230" height="30" as="geometry" />
        </mxCell>
        <mxCell id="76" value="5. Báo Cáo Doanh Thu" style="text;html=1;align=left;verticalAlign=middle;whiteSpace=wrap;rounded=0;" parent="49" vertex="1">
          <mxGeometry y="150" width="230" height="30" as="geometry" />
        </mxCell>
        <mxCell id="77" value="6. Thoát" style="text;html=1;align=left;verticalAlign=middle;whiteSpace=wrap;rounded=0;" parent="49" vertex="1">
          <mxGeometry y="180" width="230" height="30" as="geometry" />
        </mxCell>
        <mxCell id="73" style="edgeStyle=entityRelationEdgeStyle;html=1;exitX=1;exitY=0.5;exitDx=0;exitDy=0;entryX=0;entryY=0.25;entryDx=0;entryDy=0;elbow=vertical;" parent="1" source="2" edge="1">
          <mxGeometry relative="1" as="geometry">
            <mxPoint x="420" y="-502.5" as="targetPoint" />
          </mxGeometry>
        </mxCell>
        <mxCell id="79" style="html=1;exitX=1;exitY=0.5;exitDx=0;exitDy=0;edgeStyle=entityRelationEdgeStyle;elbow=vertical;" parent="1" source="55" edge="1">
          <mxGeometry relative="1" as="geometry">
            <mxPoint x="590" y="-1160" as="targetPoint" />
            <Array as="points">
              <mxPoint x="620" y="-730" />
            </Array>
          </mxGeometry>
        </mxCell>
        <mxCell id="81" value="" style="swimlane;fontStyle=0;childLayout=stackLayout;horizontal=1;startSize=30;horizontalStack=0;resizeParent=1;resizeParentMax=0;resizeLast=0;collapsible=1;marginBottom=0;whiteSpace=wrap;html=1;" parent="1" vertex="1">
          <mxGeometry x="600" y="-1180" width="140" height="180" as="geometry" />
        </mxCell>
        <mxCell id="78" value="1. Thêm Sách" style="text;html=1;align=left;verticalAlign=middle;whiteSpace=wrap;rounded=0;" parent="81" vertex="1">
          <mxGeometry y="30" width="140" height="30" as="geometry" />
        </mxCell>
        <mxCell id="85" value="2. Sửa Sách" style="text;html=1;align=left;verticalAlign=middle;whiteSpace=wrap;rounded=0;" parent="81" vertex="1">
          <mxGeometry y="60" width="140" height="30" as="geometry" />
        </mxCell>
        <mxCell id="86" value="3. Xoá Sách" style="text;html=1;align=left;verticalAlign=middle;whiteSpace=wrap;rounded=0;" parent="81" vertex="1">
          <mxGeometry y="90" width="140" height="30" as="geometry" />
        </mxCell>
        <mxCell id="87" value="4. Tìm Sách" style="text;html=1;align=left;verticalAlign=middle;whiteSpace=wrap;rounded=0;" parent="81" vertex="1">
          <mxGeometry y="120" width="140" height="30" as="geometry" />
        </mxCell>
        <mxCell id="88" value="5. Quay Lại" style="text;html=1;align=left;verticalAlign=middle;whiteSpace=wrap;rounded=0;" parent="81" vertex="1">
          <mxGeometry y="150" width="140" height="30" as="geometry" />
        </mxCell>
        <mxCell id="uiG0_eGR7GJN6nNu0VmI-89" value="" style="swimlane;fontStyle=0;childLayout=stackLayout;horizontal=1;startSize=30;horizontalStack=0;resizeParent=1;resizeParentMax=0;resizeLast=0;collapsible=1;marginBottom=0;whiteSpace=wrap;html=1;" parent="1" vertex="1">
          <mxGeometry x="1470" y="-1250" width="140" height="180" as="geometry" />
        </mxCell>
        <mxCell id="uiG0_eGR7GJN6nNu0VmI-90" value="1. Tên KH" style="text;html=1;align=left;verticalAlign=middle;whiteSpace=wrap;rounded=0;" parent="uiG0_eGR7GJN6nNu0VmI-89" vertex="1">
          <mxGeometry y="30" width="140" height="30" as="geometry" />
        </mxCell>
        <mxCell id="uiG0_eGR7GJN6nNu0VmI-91" value="2. Số điện thoại" style="text;html=1;align=left;verticalAlign=middle;whiteSpace=wrap;rounded=0;" parent="uiG0_eGR7GJN6nNu0VmI-89" vertex="1">
          <mxGeometry y="60" width="140" height="30" as="geometry" />
        </mxCell>
        <mxCell id="uiG0_eGR7GJN6nNu0VmI-92" value="3. Email" style="text;html=1;align=left;verticalAlign=middle;whiteSpace=wrap;rounded=0;" parent="uiG0_eGR7GJN6nNu0VmI-89" vertex="1">
          <mxGeometry y="90" width="140" height="30" as="geometry" />
        </mxCell>
        <mxCell id="uiG0_eGR7GJN6nNu0VmI-93" value="4. Địa chỉ" style="text;html=1;align=left;verticalAlign=middle;whiteSpace=wrap;rounded=0;" parent="uiG0_eGR7GJN6nNu0VmI-89" vertex="1">
          <mxGeometry y="120" width="140" height="30" as="geometry" />
        </mxCell>
        <mxCell id="uiG0_eGR7GJN6nNu0VmI-94" value="5. Quay Lại" style="text;html=1;align=left;verticalAlign=middle;whiteSpace=wrap;rounded=0;" parent="uiG0_eGR7GJN6nNu0VmI-89" vertex="1">
          <mxGeometry y="150" width="140" height="30" as="geometry" />
        </mxCell>
        <mxCell id="uiG0_eGR7GJN6nNu0VmI-88" style="rounded=0;orthogonalLoop=1;jettySize=auto;html=1;exitX=1;exitY=0.5;exitDx=0;exitDy=0;entryX=-0.021;entryY=0.092;entryDx=0;entryDy=0;edgeStyle=entityRelationEdgeStyle;elbow=vertical;entryPerimeter=0;" parent="1" source="58" target="uiG0_eGR7GJN6nNu0VmI-89" edge="1">
          <mxGeometry relative="1" as="geometry">
            <mxPoint x="860" y="-600" as="targetPoint" />
            <Array as="points">
              <mxPoint x="980" y="-940" />
            </Array>
          </mxGeometry>
        </mxCell>
        <mxCell id="uiG0_eGR7GJN6nNu0VmI-96" value="" style="swimlane;fontStyle=0;childLayout=stackLayout;horizontal=1;startSize=30;horizontalStack=0;resizeParent=1;resizeParentMax=0;resizeLast=0;collapsible=1;marginBottom=0;whiteSpace=wrap;html=1;" parent="1" vertex="1">
          <mxGeometry x="850" y="-710" width="140" height="150" as="geometry" />
        </mxCell>
        <mxCell id="uiG0_eGR7GJN6nNu0VmI-97" value="1. Tạo đơn" style="text;html=1;align=left;verticalAlign=middle;whiteSpace=wrap;rounded=0;" parent="uiG0_eGR7GJN6nNu0VmI-96" vertex="1">
          <mxGeometry y="30" width="140" height="30" as="geometry" />
        </mxCell>
        <mxCell id="uiG0_eGR7GJN6nNu0VmI-100" value="2. Xoá hết mã" style="text;html=1;align=left;verticalAlign=middle;whiteSpace=wrap;rounded=0;" parent="uiG0_eGR7GJN6nNu0VmI-96" vertex="1">
          <mxGeometry y="60" width="140" height="30" as="geometry" />
        </mxCell>
        <mxCell id="uiG0_eGR7GJN6nNu0VmI-101" value="3. Quay Lại" style="text;html=1;align=left;verticalAlign=middle;whiteSpace=wrap;rounded=0;" parent="uiG0_eGR7GJN6nNu0VmI-96" vertex="1">
          <mxGeometry y="90" width="140" height="30" as="geometry" />
        </mxCell>
        <mxCell id="uiG0_eGR7GJN6nNu0VmI-103" value="4. Xem doanh thu" style="text;html=1;align=left;verticalAlign=middle;whiteSpace=wrap;rounded=0;" parent="uiG0_eGR7GJN6nNu0VmI-96" vertex="1">
          <mxGeometry y="120" width="140" height="30" as="geometry" />
        </mxCell>
        <mxCell id="uiG0_eGR7GJN6nNu0VmI-95" style="rounded=0;orthogonalLoop=1;jettySize=auto;html=1;exitX=1;exitY=0.5;exitDx=0;exitDy=0;entryX=0;entryY=1;entryDx=0;entryDy=0;edgeStyle=entityRelationEdgeStyle;elbow=vertical;" parent="1" source="59" target="uiG0_eGR7GJN6nNu0VmI-101" edge="1">
          <mxGeometry relative="1" as="geometry">
            <mxPoint x="900" y="-560" as="targetPoint" />
          </mxGeometry>
        </mxCell>
        <mxCell id="uiG0_eGR7GJN6nNu0VmI-133" value="" style="swimlane;fontStyle=0;childLayout=stackLayout;horizontal=1;startSize=30;horizontalStack=0;resizeParent=1;resizeParentMax=0;resizeLast=0;collapsible=1;marginBottom=0;whiteSpace=wrap;html=1;" parent="1" vertex="1">
          <mxGeometry x="1130" y="-550" width="160" height="240" as="geometry" />
        </mxCell>
        <mxCell id="uiG0_eGR7GJN6nNu0VmI-134" value="1. Tìm nhân viên" style="text;html=1;align=left;verticalAlign=middle;whiteSpace=wrap;rounded=0;" parent="uiG0_eGR7GJN6nNu0VmI-133" vertex="1">
          <mxGeometry y="30" width="160" height="30" as="geometry" />
        </mxCell>
        <mxCell id="uiG0_eGR7GJN6nNu0VmI-135" value="2. Tên nhân viên" style="text;html=1;align=left;verticalAlign=middle;whiteSpace=wrap;rounded=0;" parent="uiG0_eGR7GJN6nNu0VmI-133" vertex="1">
          <mxGeometry y="60" width="160" height="30" as="geometry" />
        </mxCell>
        <mxCell id="uiG0_eGR7GJN6nNu0VmI-136" value="3. Email" style="text;html=1;align=left;verticalAlign=middle;whiteSpace=wrap;rounded=0;" parent="uiG0_eGR7GJN6nNu0VmI-133" vertex="1">
          <mxGeometry y="90" width="160" height="30" as="geometry" />
        </mxCell>
        <mxCell id="uiG0_eGR7GJN6nNu0VmI-138" value="4. Số điện thoại" style="text;html=1;align=left;verticalAlign=middle;whiteSpace=wrap;rounded=0;" parent="uiG0_eGR7GJN6nNu0VmI-133" vertex="1">
          <mxGeometry y="120" width="160" height="30" as="geometry" />
        </mxCell>
        <mxCell id="CWIzPC7krG5T2-R4IEzF-136" value="5. Địa chỉ" style="text;html=1;align=left;verticalAlign=middle;whiteSpace=wrap;rounded=0;" vertex="1" parent="uiG0_eGR7GJN6nNu0VmI-133">
          <mxGeometry y="150" width="160" height="30" as="geometry" />
        </mxCell>
        <mxCell id="uiG0_eGR7GJN6nNu0VmI-137" value="6. Xoá nhân viên" style="text;html=1;align=left;verticalAlign=middle;whiteSpace=wrap;rounded=0;" parent="uiG0_eGR7GJN6nNu0VmI-133" vertex="1">
          <mxGeometry y="180" width="160" height="30" as="geometry" />
        </mxCell>
        <mxCell id="uiG0_eGR7GJN6nNu0VmI-140" value="7. Quay Lại" style="text;html=1;align=left;verticalAlign=middle;whiteSpace=wrap;rounded=0;" parent="uiG0_eGR7GJN6nNu0VmI-133" vertex="1">
          <mxGeometry y="210" width="160" height="30" as="geometry" />
        </mxCell>
        <mxCell id="uiG0_eGR7GJN6nNu0VmI-143" style="rounded=0;orthogonalLoop=1;jettySize=auto;html=1;exitX=1;exitY=0.5;exitDx=0;exitDy=0;entryX=0;entryY=0.25;entryDx=0;entryDy=0;edgeStyle=entityRelationEdgeStyle;elbow=vertical;" parent="1" source="75" target="uiG0_eGR7GJN6nNu0VmI-136" edge="1">
          <mxGeometry relative="1" as="geometry" />
        </mxCell>
        <mxCell id="uiG0_eGR7GJN6nNu0VmI-145" value="" style="swimlane;fontStyle=0;childLayout=stackLayout;horizontal=1;startSize=30;horizontalStack=0;resizeParent=1;resizeParentMax=0;resizeLast=0;collapsible=1;marginBottom=0;whiteSpace=wrap;html=1;" parent="1" vertex="1">
          <mxGeometry x="820" y="-330" width="160" height="120" as="geometry" />
        </mxCell>
        <mxCell id="uiG0_eGR7GJN6nNu0VmI-146" value="1. Ngày" style="text;html=1;align=left;verticalAlign=middle;whiteSpace=wrap;rounded=0;" parent="uiG0_eGR7GJN6nNu0VmI-145" vertex="1">
          <mxGeometry y="30" width="160" height="30" as="geometry" />
        </mxCell>
        <mxCell id="uiG0_eGR7GJN6nNu0VmI-147" value="2. Doanh Thu trong ngày" style="text;html=1;align=left;verticalAlign=middle;whiteSpace=wrap;rounded=0;" parent="uiG0_eGR7GJN6nNu0VmI-145" vertex="1">
          <mxGeometry y="60" width="160" height="30" as="geometry" />
        </mxCell>
        <mxCell id="uiG0_eGR7GJN6nNu0VmI-148" value="3. Xoá" style="text;html=1;align=left;verticalAlign=middle;whiteSpace=wrap;rounded=0;" parent="uiG0_eGR7GJN6nNu0VmI-145" vertex="1">
          <mxGeometry y="90" width="160" height="30" as="geometry" />
        </mxCell>
        <mxCell id="uiG0_eGR7GJN6nNu0VmI-153" style="edgeStyle=entityRelationEdgeStyle;rounded=0;orthogonalLoop=1;jettySize=auto;html=1;exitX=1;exitY=0.5;exitDx=0;exitDy=0;entryX=0;entryY=0.5;entryDx=0;entryDy=0;elbow=vertical;" parent="1" source="76" target="uiG0_eGR7GJN6nNu0VmI-146" edge="1">
          <mxGeometry relative="1" as="geometry" />
        </mxCell>
        <mxCell id="CWIzPC7krG5T2-R4IEzF-88" value="" style="swimlane;fontStyle=0;childLayout=stackLayout;horizontal=1;startSize=30;horizontalStack=0;resizeParent=1;resizeParentMax=0;resizeLast=0;collapsible=1;marginBottom=0;whiteSpace=wrap;html=1;" vertex="1" parent="1">
          <mxGeometry x="1090" y="-1260" width="170" height="150" as="geometry" />
        </mxCell>
        <mxCell id="CWIzPC7krG5T2-R4IEzF-89" value="1. Tên Sách" style="text;html=1;align=left;verticalAlign=middle;whiteSpace=wrap;rounded=0;" vertex="1" parent="CWIzPC7krG5T2-R4IEzF-88">
          <mxGeometry y="30" width="170" height="30" as="geometry" />
        </mxCell>
        <mxCell id="CWIzPC7krG5T2-R4IEzF-90" value="2. NXB" style="text;html=1;align=left;verticalAlign=middle;whiteSpace=wrap;rounded=0;" vertex="1" parent="CWIzPC7krG5T2-R4IEzF-88">
          <mxGeometry y="60" width="170" height="30" as="geometry" />
        </mxCell>
        <mxCell id="CWIzPC7krG5T2-R4IEzF-91" value="3. Tác giả" style="text;html=1;align=left;verticalAlign=middle;whiteSpace=wrap;rounded=0;" vertex="1" parent="CWIzPC7krG5T2-R4IEzF-88">
          <mxGeometry y="90" width="170" height="30" as="geometry" />
        </mxCell>
        <mxCell id="CWIzPC7krG5T2-R4IEzF-92" value="4. Thể loại" style="text;html=1;align=left;verticalAlign=middle;whiteSpace=wrap;rounded=0;" vertex="1" parent="CWIzPC7krG5T2-R4IEzF-88">
          <mxGeometry y="120" width="170" height="30" as="geometry" />
        </mxCell>
        <mxCell id="CWIzPC7krG5T2-R4IEzF-96" style="edgeStyle=orthogonalEdgeStyle;rounded=0;orthogonalLoop=1;jettySize=auto;html=1;exitX=1;exitY=0.5;exitDx=0;exitDy=0;entryX=0.5;entryY=1;entryDx=0;entryDy=0;" edge="1" parent="1" source="87" target="CWIzPC7krG5T2-R4IEzF-92">
          <mxGeometry relative="1" as="geometry" />
        </mxCell>
        <mxCell id="CWIzPC7krG5T2-R4IEzF-97" style="edgeStyle=orthogonalEdgeStyle;rounded=0;orthogonalLoop=1;jettySize=auto;html=1;exitX=1;exitY=0.5;exitDx=0;exitDy=0;entryX=0.5;entryY=0;entryDx=0;entryDy=0;" edge="1" parent="1" source="78" target="CWIzPC7krG5T2-R4IEzF-88">
          <mxGeometry relative="1" as="geometry" />
        </mxCell>
        <mxCell id="CWIzPC7krG5T2-R4IEzF-98" value="" style="swimlane;fontStyle=0;childLayout=stackLayout;horizontal=1;startSize=30;horizontalStack=0;resizeParent=1;resizeParentMax=0;resizeLast=0;collapsible=1;marginBottom=0;whiteSpace=wrap;html=1;" vertex="1" parent="1">
          <mxGeometry x="900" y="-1420" width="170" height="90" as="geometry" />
        </mxCell>
        <mxCell id="CWIzPC7krG5T2-R4IEzF-99" value="1. Giá nhập" style="text;html=1;align=left;verticalAlign=middle;whiteSpace=wrap;rounded=0;" vertex="1" parent="CWIzPC7krG5T2-R4IEzF-98">
          <mxGeometry y="30" width="170" height="30" as="geometry" />
        </mxCell>
        <mxCell id="CWIzPC7krG5T2-R4IEzF-100" value="2. Số lượng" style="text;html=1;align=left;verticalAlign=middle;whiteSpace=wrap;rounded=0;" vertex="1" parent="CWIzPC7krG5T2-R4IEzF-98">
          <mxGeometry y="60" width="170" height="30" as="geometry" />
        </mxCell>
        <mxCell id="CWIzPC7krG5T2-R4IEzF-105" style="edgeStyle=orthogonalEdgeStyle;rounded=0;orthogonalLoop=1;jettySize=auto;html=1;exitX=1;exitY=0.5;exitDx=0;exitDy=0;entryX=0;entryY=0.25;entryDx=0;entryDy=0;" edge="1" parent="1" source="78" target="CWIzPC7krG5T2-R4IEzF-98">
          <mxGeometry relative="1" as="geometry" />
        </mxCell>
        <mxCell id="CWIzPC7krG5T2-R4IEzF-106" value="" style="swimlane;fontStyle=0;childLayout=stackLayout;horizontal=1;startSize=30;horizontalStack=0;resizeParent=1;resizeParentMax=0;resizeLast=0;collapsible=1;marginBottom=0;whiteSpace=wrap;html=1;" vertex="1" parent="1">
          <mxGeometry x="1060" y="-830" width="170" height="240" as="geometry" />
        </mxCell>
        <mxCell id="CWIzPC7krG5T2-R4IEzF-107" value="1. Mã" style="text;html=1;align=left;verticalAlign=middle;whiteSpace=wrap;rounded=0;" vertex="1" parent="CWIzPC7krG5T2-R4IEzF-106">
          <mxGeometry y="30" width="170" height="30" as="geometry" />
        </mxCell>
        <mxCell id="CWIzPC7krG5T2-R4IEzF-108" value="2. Ngày" style="text;html=1;align=left;verticalAlign=middle;whiteSpace=wrap;rounded=0;" vertex="1" parent="CWIzPC7krG5T2-R4IEzF-106">
          <mxGeometry y="60" width="170" height="30" as="geometry" />
        </mxCell>
        <mxCell id="CWIzPC7krG5T2-R4IEzF-109" value="3. Khách hàng" style="text;html=1;align=left;verticalAlign=middle;whiteSpace=wrap;rounded=0;" vertex="1" parent="CWIzPC7krG5T2-R4IEzF-106">
          <mxGeometry y="90" width="170" height="30" as="geometry" />
        </mxCell>
        <mxCell id="CWIzPC7krG5T2-R4IEzF-110" value="4. Sách" style="text;html=1;align=left;verticalAlign=middle;whiteSpace=wrap;rounded=0;" vertex="1" parent="CWIzPC7krG5T2-R4IEzF-106">
          <mxGeometry y="120" width="170" height="30" as="geometry" />
        </mxCell>
        <mxCell id="CWIzPC7krG5T2-R4IEzF-153" value="5. Số lượng" style="text;html=1;align=left;verticalAlign=middle;whiteSpace=wrap;rounded=0;" vertex="1" parent="CWIzPC7krG5T2-R4IEzF-106">
          <mxGeometry y="150" width="170" height="30" as="geometry" />
        </mxCell>
        <mxCell id="CWIzPC7krG5T2-R4IEzF-111" value="6. Giá bán" style="text;html=1;align=left;verticalAlign=middle;whiteSpace=wrap;rounded=0;" vertex="1" parent="CWIzPC7krG5T2-R4IEzF-106">
          <mxGeometry y="180" width="170" height="30" as="geometry" />
        </mxCell>
        <mxCell id="CWIzPC7krG5T2-R4IEzF-112" value="7. Xoá" style="text;html=1;align=left;verticalAlign=middle;whiteSpace=wrap;rounded=0;" vertex="1" parent="CWIzPC7krG5T2-R4IEzF-106">
          <mxGeometry y="210" width="170" height="30" as="geometry" />
        </mxCell>
        <mxCell id="CWIzPC7krG5T2-R4IEzF-115" style="edgeStyle=orthogonalEdgeStyle;rounded=0;orthogonalLoop=1;jettySize=auto;html=1;exitX=1;exitY=0.5;exitDx=0;exitDy=0;entryX=-0.024;entryY=0.079;entryDx=0;entryDy=0;entryPerimeter=0;" edge="1" parent="1" source="uiG0_eGR7GJN6nNu0VmI-97" target="CWIzPC7krG5T2-R4IEzF-106">
          <mxGeometry relative="1" as="geometry" />
        </mxCell>
        <mxCell id="CWIzPC7krG5T2-R4IEzF-117" value="" style="swimlane;fontStyle=0;childLayout=stackLayout;horizontal=1;startSize=30;horizontalStack=0;resizeParent=1;resizeParentMax=0;resizeLast=0;collapsible=1;marginBottom=0;whiteSpace=wrap;html=1;" vertex="1" parent="1">
          <mxGeometry x="1280" y="-940" width="170" height="150" as="geometry" />
        </mxCell>
        <mxCell id="CWIzPC7krG5T2-R4IEzF-118" value="1. Tên Khách Hàng" style="text;html=1;align=left;verticalAlign=middle;whiteSpace=wrap;rounded=0;" vertex="1" parent="CWIzPC7krG5T2-R4IEzF-117">
          <mxGeometry y="30" width="170" height="30" as="geometry" />
        </mxCell>
        <mxCell id="CWIzPC7krG5T2-R4IEzF-119" value="2. Email" style="text;html=1;align=left;verticalAlign=middle;whiteSpace=wrap;rounded=0;" vertex="1" parent="CWIzPC7krG5T2-R4IEzF-117">
          <mxGeometry y="60" width="170" height="30" as="geometry" />
        </mxCell>
        <mxCell id="CWIzPC7krG5T2-R4IEzF-120" value="3. Số điện thoại" style="text;html=1;align=left;verticalAlign=middle;whiteSpace=wrap;rounded=0;" vertex="1" parent="CWIzPC7krG5T2-R4IEzF-117">
          <mxGeometry y="90" width="170" height="30" as="geometry" />
        </mxCell>
        <mxCell id="CWIzPC7krG5T2-R4IEzF-121" value="4. Địa chỉ" style="text;html=1;align=left;verticalAlign=middle;whiteSpace=wrap;rounded=0;" vertex="1" parent="CWIzPC7krG5T2-R4IEzF-117">
          <mxGeometry y="120" width="170" height="30" as="geometry" />
        </mxCell>
        <mxCell id="CWIzPC7krG5T2-R4IEzF-124" style="edgeStyle=orthogonalEdgeStyle;rounded=0;orthogonalLoop=1;jettySize=auto;html=1;exitX=1;exitY=0.5;exitDx=0;exitDy=0;entryX=-0.002;entryY=0.145;entryDx=0;entryDy=0;entryPerimeter=0;" edge="1" parent="1" source="CWIzPC7krG5T2-R4IEzF-109" target="CWIzPC7krG5T2-R4IEzF-117">
          <mxGeometry relative="1" as="geometry" />
        </mxCell>
        <mxCell id="CWIzPC7krG5T2-R4IEzF-125" value="Lưu" style="rounded=0;whiteSpace=wrap;html=1;" vertex="1" parent="1">
          <mxGeometry x="1480" y="-990" width="120" height="60" as="geometry" />
        </mxCell>
        <mxCell id="CWIzPC7krG5T2-R4IEzF-126" value="Tải sang trang khách hàng" style="rounded=0;whiteSpace=wrap;html=1;" vertex="1" parent="1">
          <mxGeometry x="1480" y="-910" width="120" height="60" as="geometry" />
        </mxCell>
        <mxCell id="CWIzPC7krG5T2-R4IEzF-128" style="edgeStyle=orthogonalEdgeStyle;rounded=0;orthogonalLoop=1;jettySize=auto;html=1;exitX=0.5;exitY=1;exitDx=0;exitDy=0;entryX=1;entryY=0.25;entryDx=0;entryDy=0;" edge="1" parent="1" source="CWIzPC7krG5T2-R4IEzF-127" target="CWIzPC7krG5T2-R4IEzF-111">
          <mxGeometry relative="1" as="geometry" />
        </mxCell>
        <mxCell id="CWIzPC7krG5T2-R4IEzF-127" value="Đóng" style="rounded=0;whiteSpace=wrap;html=1;" vertex="1" parent="1">
          <mxGeometry x="1480" y="-840" width="120" height="60" as="geometry" />
        </mxCell>
        <mxCell id="CWIzPC7krG5T2-R4IEzF-129" style="edgeStyle=orthogonalEdgeStyle;rounded=0;orthogonalLoop=1;jettySize=auto;html=1;exitX=1;exitY=0;exitDx=0;exitDy=0;entryX=0;entryY=0.5;entryDx=0;entryDy=0;" edge="1" parent="1" source="CWIzPC7krG5T2-R4IEzF-118" target="CWIzPC7krG5T2-R4IEzF-125">
          <mxGeometry relative="1" as="geometry" />
        </mxCell>
        <mxCell id="CWIzPC7krG5T2-R4IEzF-130" style="edgeStyle=orthogonalEdgeStyle;rounded=0;orthogonalLoop=1;jettySize=auto;html=1;exitX=1;exitY=0.5;exitDx=0;exitDy=0;entryX=0;entryY=0.5;entryDx=0;entryDy=0;" edge="1" parent="1" source="CWIzPC7krG5T2-R4IEzF-118" target="CWIzPC7krG5T2-R4IEzF-126">
          <mxGeometry relative="1" as="geometry" />
        </mxCell>
        <mxCell id="CWIzPC7krG5T2-R4IEzF-131" style="edgeStyle=orthogonalEdgeStyle;rounded=0;orthogonalLoop=1;jettySize=auto;html=1;exitX=1;exitY=0.75;exitDx=0;exitDy=0;entryX=0;entryY=0.5;entryDx=0;entryDy=0;" edge="1" parent="1" source="CWIzPC7krG5T2-R4IEzF-120" target="CWIzPC7krG5T2-R4IEzF-127">
          <mxGeometry relative="1" as="geometry" />
        </mxCell>
        <mxCell id="CWIzPC7krG5T2-R4IEzF-134" style="edgeStyle=orthogonalEdgeStyle;rounded=0;orthogonalLoop=1;jettySize=auto;html=1;exitX=1;exitY=0.5;exitDx=0;exitDy=0;entryX=0.998;entryY=0.094;entryDx=0;entryDy=0;entryPerimeter=0;" edge="1" parent="1" source="CWIzPC7krG5T2-R4IEzF-126" target="uiG0_eGR7GJN6nNu0VmI-89">
          <mxGeometry relative="1" as="geometry">
            <Array as="points">
              <mxPoint x="1680" y="-880" />
              <mxPoint x="1680" y="-1233" />
            </Array>
          </mxGeometry>
        </mxCell>
        <mxCell id="CWIzPC7krG5T2-R4IEzF-137" value="" style="swimlane;fontStyle=0;childLayout=stackLayout;horizontal=1;startSize=30;horizontalStack=0;resizeParent=1;resizeParentMax=0;resizeLast=0;collapsible=1;marginBottom=0;whiteSpace=wrap;html=1;" vertex="1" parent="1">
          <mxGeometry x="1400" y="-625" width="160" height="150" as="geometry" />
        </mxCell>
        <mxCell id="CWIzPC7krG5T2-R4IEzF-139" value="1. Tên nhân viên" style="text;html=1;align=left;verticalAlign=middle;whiteSpace=wrap;rounded=0;" vertex="1" parent="CWIzPC7krG5T2-R4IEzF-137">
          <mxGeometry y="30" width="160" height="30" as="geometry" />
        </mxCell>
        <mxCell id="CWIzPC7krG5T2-R4IEzF-140" value="2. Email" style="text;html=1;align=left;verticalAlign=middle;whiteSpace=wrap;rounded=0;" vertex="1" parent="CWIzPC7krG5T2-R4IEzF-137">
          <mxGeometry y="60" width="160" height="30" as="geometry" />
        </mxCell>
        <mxCell id="CWIzPC7krG5T2-R4IEzF-141" value="3. Số điện thoại" style="text;html=1;align=left;verticalAlign=middle;whiteSpace=wrap;rounded=0;" vertex="1" parent="CWIzPC7krG5T2-R4IEzF-137">
          <mxGeometry y="90" width="160" height="30" as="geometry" />
        </mxCell>
        <mxCell id="CWIzPC7krG5T2-R4IEzF-142" value="4. Địa chỉ" style="text;html=1;align=left;verticalAlign=middle;whiteSpace=wrap;rounded=0;" vertex="1" parent="CWIzPC7krG5T2-R4IEzF-137">
          <mxGeometry y="120" width="160" height="30" as="geometry" />
        </mxCell>
        <mxCell id="CWIzPC7krG5T2-R4IEzF-145" style="edgeStyle=orthogonalEdgeStyle;rounded=0;orthogonalLoop=1;jettySize=auto;html=1;exitX=1;exitY=0.5;exitDx=0;exitDy=0;entryX=-0.003;entryY=0.076;entryDx=0;entryDy=0;entryPerimeter=0;" edge="1" parent="1" source="uiG0_eGR7GJN6nNu0VmI-134" target="CWIzPC7krG5T2-R4IEzF-137">
          <mxGeometry relative="1" as="geometry" />
        </mxCell>
        <mxCell id="CWIzPC7krG5T2-R4IEzF-148" style="edgeStyle=orthogonalEdgeStyle;rounded=0;orthogonalLoop=1;jettySize=auto;html=1;exitX=0;exitY=0.5;exitDx=0;exitDy=0;" edge="1" parent="1" source="CWIzPC7krG5T2-R4IEzF-146">
          <mxGeometry relative="1" as="geometry">
            <mxPoint x="1540" y="-689.545454545455" as="targetPoint" />
          </mxGeometry>
        </mxCell>
        <mxCell id="CWIzPC7krG5T2-R4IEzF-150" style="edgeStyle=orthogonalEdgeStyle;rounded=0;orthogonalLoop=1;jettySize=auto;html=1;exitX=0.5;exitY=1;exitDx=0;exitDy=0;" edge="1" parent="1" source="CWIzPC7krG5T2-R4IEzF-146" target="CWIzPC7krG5T2-R4IEzF-149">
          <mxGeometry relative="1" as="geometry" />
        </mxCell>
        <mxCell id="CWIzPC7krG5T2-R4IEzF-146" value="Lãi suất ( % )" style="rounded=0;whiteSpace=wrap;html=1;" vertex="1" parent="1">
          <mxGeometry x="1650" y="-720" width="120" height="60" as="geometry" />
        </mxCell>
        <mxCell id="CWIzPC7krG5T2-R4IEzF-147" style="edgeStyle=orthogonalEdgeStyle;rounded=0;orthogonalLoop=1;jettySize=auto;html=1;exitX=1;exitY=0.5;exitDx=0;exitDy=0;entryX=1;entryY=0.5;entryDx=0;entryDy=0;" edge="1" parent="1" source="CWIzPC7krG5T2-R4IEzF-99" target="CWIzPC7krG5T2-R4IEzF-146">
          <mxGeometry relative="1" as="geometry" />
        </mxCell>
        <mxCell id="CWIzPC7krG5T2-R4IEzF-151" style="edgeStyle=orthogonalEdgeStyle;rounded=0;orthogonalLoop=1;jettySize=auto;html=1;exitX=0.5;exitY=1;exitDx=0;exitDy=0;entryX=1;entryY=0.5;entryDx=0;entryDy=0;" edge="1" parent="1" source="CWIzPC7krG5T2-R4IEzF-149" target="uiG0_eGR7GJN6nNu0VmI-147">
          <mxGeometry relative="1" as="geometry" />
        </mxCell>
        <mxCell id="CWIzPC7krG5T2-R4IEzF-149" value="Lợi nhuận" style="rounded=0;whiteSpace=wrap;html=1;" vertex="1" parent="1">
          <mxGeometry x="1650" y="-625" width="120" height="60" as="geometry" />
        </mxCell>
        <mxCell id="CWIzPC7krG5T2-R4IEzF-152" style="edgeStyle=orthogonalEdgeStyle;rounded=0;orthogonalLoop=1;jettySize=auto;html=1;exitX=1;exitY=0.75;exitDx=0;exitDy=0;entryX=0;entryY=0.5;entryDx=0;entryDy=0;" edge="1" parent="1" source="CWIzPC7krG5T2-R4IEzF-111" target="CWIzPC7krG5T2-R4IEzF-149">
          <mxGeometry relative="1" as="geometry">
            <Array as="points">
              <mxPoint x="1580" y="-657" />
              <mxPoint x="1580" y="-595" />
            </Array>
          </mxGeometry>
        </mxCell>
      </root>
    </mxGraphModel>
  </diagram>
</mxfile>
